<svg width="32" height="38" viewBox="0 0 32 38" fill="none" xmlns="http://www.w3.org/2000/svg">
<path d="M22.125 5.875H26.5C27.4283 5.875 28.3185 6.24375 28.9749 6.90013C29.6313 7.5565 30 8.44674 30 9.375V32.125C30 33.0533 29.6313 33.9435 28.9749 34.5999C28.3185 35.2563 27.4283 35.625 26.5 35.625H5.5C4.57174 35.625 3.6815 35.2563 3.02513 34.5999C2.36875 33.9435 2 33.0533 2 32.125V9.375C2 8.44674 2.36875 7.5565 3.02513 6.90013C3.6815 6.24375 4.57174 5.875 5.5 5.875H9.875" stroke="black" stroke-width="3.5" stroke-linecap="round" stroke-linejoin="round"/>
<path d="M10.0868 5.02625C10.276 4.26906 10.7129 3.59686 11.3281 3.11648C11.9432 2.63611 12.7013 2.37512 13.4817 2.375H18.5165C19.297 2.37512 20.055 2.63611 20.6702 3.11648C21.2853 3.59686 21.7222 4.26906 21.9115 5.02625L23 9.375H9L10.0868 5.02625Z" stroke="black" stroke-width="3.5" stroke-linecap="round" stroke-linejoin="round"/>
<path d="M10.75 26.875H21.25M10.75 19.875H21.25H10.75Z" stroke="black" stroke-width="3.5" stroke-linecap="round"/>
</svg>
