<svg width="42" height="42" viewBox="0 0 42 42" fill="none" xmlns="http://www.w3.org/2000/svg">
<path d="M31.0625 7.1575L26.635 10.5525L28.2275 15.9075L23.625 12.74L19.0225 15.9075L20.615 10.5525L16.1875 7.1575L21.77 7L23.625 1.75L25.48 7L31.0625 7.1575ZM37.1875 19.25L34.3175 21.4375L35.35 24.9025L32.375 22.855L29.4 24.9025L30.4325 21.4375L27.5625 19.25L31.1675 19.1625L32.375 15.75L33.5825 19.1625L37.1875 19.25ZM33.1975 27.9125C34.65 27.7725 36.2075 29.8375 35.28 31.15C34.72 31.9375 34.125 32.6725 33.39 33.3725C26.5475 40.25 15.47 40.25 8.645 33.3725C1.8025 26.5475 1.8025 15.4525 8.645 8.6275C9.345 7.9275 10.08 7.2975 10.8675 6.7375C12.18 5.81 14.245 7.3675 14.105 8.82C13.6325 13.825 15.3125 19.0225 19.1625 22.855C20.9818 24.6841 23.1845 26.0866 25.6116 26.9612C28.0386 27.8358 30.6296 28.1607 33.1975 27.9125ZM30.3275 31.4475C25.1901 31.1521 20.3368 28.993 16.6775 25.375C12.88 21.5425 10.85 16.625 10.57 11.69C5.6525 17.185 5.845 25.62 11.1125 30.905C16.3975 36.1725 24.8325 36.365 30.3275 31.4475V31.4475Z" fill="black"/>
</svg>
