<svg width="42" height="42" viewBox="0 0 42 42" fill="none" xmlns="http://www.w3.org/2000/svg">
<path d="M1.3125 21C1.3125 24.8719 2.42812 28.4813 4.33125 31.5H37.6031C39.5062 28.4813 40.6219 24.8719 40.6219 21C40.6219 17.1281 39.5062 13.5187 37.6031 10.5H4.33125C2.42812 13.5187 1.3125 17.1281 1.3125 21Z" fill="#FFCE31"/>
<path d="M37.6687 10.5C34.1906 4.9875 28.0219 1.3125 21 1.3125C13.9781 1.3125 7.80936 4.9875 4.33124 10.5H37.6687ZM4.33124 31.5C7.80936 37.0125 13.9781 40.6875 21 40.6875C28.0219 40.6875 34.1906 37.0125 37.6687 31.5H4.33124Z" fill="#ED4C5C"/>
<path d="M6.03748 18.8344H8.13748V20.0156H6.03748V18.8344ZM6.03748 27.4969H8.2031V28.6125H6.03748V27.4969Z" fill="#C8B100"/>
<path d="M5.84064 25.6594C5.64376 25.7906 5.51251 25.9219 5.51251 25.9875C5.51251 26.0531 5.57814 26.1187 5.70939 26.1844C5.84064 26.25 5.97189 26.3812 5.90626 26.5125C6.03751 26.3812 6.10314 26.25 6.10314 26.1187C6.10314 25.9219 5.97189 25.725 5.84064 25.6594" fill="#ED4C5C"/>
<path d="M6.3656 20.0156H7.87498V27.4969H6.3656V20.0156Z" fill="white"/>
<path d="M9.44998 22.7719C9.12185 22.6406 8.53123 22.5094 7.87498 22.5094C7.6781 22.5094 7.4156 22.5094 7.1531 22.575C6.23435 22.7063 5.51248 23.1 5.5781 23.3625L5.24998 22.6406C5.18435 22.3125 5.97185 21.9187 6.95623 21.7219C7.28435 21.6562 7.61248 21.6562 7.87498 21.6562C8.53123 21.6562 9.12185 21.7219 9.44998 21.8531V22.7719" fill="#ED4C5C"/>
<path d="M6.36561 23.7563C5.97186 23.7563 5.64374 23.625 5.64374 23.4281C5.64374 23.2969 5.77499 23.1 6.03749 22.9688H6.43124L6.36561 23.7563ZM7.87499 23.1656C8.13749 23.2312 8.33436 23.2969 8.46561 23.3625C8.53124 23.4281 8.26874 23.6906 7.87499 23.8875V23.1656" fill="#ED4C5C"/>
<path d="M5.38125 25.2C5.31563 25.0687 5.775 24.8062 6.36563 24.6094C6.62813 24.5437 6.825 24.4125 7.15313 24.2812C7.94063 23.9531 8.59688 23.4937 8.46563 23.3625L8.59688 24.15C8.6625 24.2812 8.1375 24.675 7.35 25.0687C7.0875 25.2 6.62813 25.3969 6.36563 25.4625C5.90625 25.5937 5.5125 25.8562 5.5125 25.9219L5.38125 25.2" fill="#ED4C5C"/>
<path d="M20.1469 18.8344H22.2469V20.0156H20.1469V18.8344ZM20.0812 27.4969H22.2469V28.6125H20.0812V27.4969Z" fill="#C8B100"/>
<path d="M22.4438 25.6594C22.6407 25.7906 22.7719 25.9219 22.7719 25.9875C22.7719 26.0531 22.7063 26.1187 22.575 26.1844C22.4438 26.3156 22.3125 26.5125 22.3781 26.5781C22.2469 26.4469 22.1813 26.3156 22.1813 26.1844C22.1813 25.9219 22.3125 25.725 22.4438 25.6594" fill="#ED4C5C"/>
<path d="M20.4094 20.0156H21.9187V27.4969H20.4094V20.0156Z" fill="white"/>
<path d="M18.8344 22.7719C19.1625 22.6406 19.7532 22.5094 20.4094 22.5094C20.6063 22.5094 20.8688 22.5094 21.1313 22.575C22.05 22.7063 22.7719 23.1 22.7063 23.3625L23.0344 22.575C23.1 22.2469 22.3125 21.8531 21.3282 21.6562H20.4094C19.7532 21.6562 19.1625 21.7219 18.8344 21.8531V22.7719" fill="#ED4C5C"/>
<path d="M21.9188 23.7563C22.3125 23.7563 22.6406 23.625 22.6406 23.4281C22.6406 23.2969 22.5094 23.1 22.2469 22.9688H21.8531L21.9188 23.7563ZM20.4094 23.1656C20.1469 23.2312 19.95 23.2969 19.8188 23.3625C19.7531 23.4281 20.0156 23.6906 20.4094 23.8875V23.1656" fill="#ED4C5C"/>
<path d="M22.9032 25.2C22.9688 25.0687 22.5094 24.8062 21.9188 24.6094C21.6563 24.5437 21.4594 24.4125 21.1313 24.2812C20.3438 23.9531 19.6875 23.4937 19.8188 23.3625L19.6875 24.15C19.6219 24.2812 20.1469 24.675 20.9344 25.0687C21.1969 25.2 21.6563 25.3969 21.9188 25.4625C22.3782 25.5937 22.7719 25.9219 22.7063 25.9875L22.9032 25.2V25.2ZM14.1094 14.6344C15.3563 14.6344 17.9156 14.8969 18.8344 15.8156C17.85 18.1781 16.275 17.1937 14.1094 17.1937C12.0094 17.1937 10.3688 18.1781 9.3844 15.8156C10.3031 14.8969 12.7969 14.6344 14.1094 14.6344Z" fill="#ED4C5C"/>
<path d="M17.325 17.2594C16.5375 16.8 15.3563 16.7344 14.1094 16.7344C12.8625 16.7344 11.6813 16.8656 10.8938 17.2594L11.1563 18.375C11.8781 18.5719 12.9281 18.7031 14.1094 18.7031C15.2906 18.7031 16.275 18.5719 17.0625 18.375L17.325 17.2594ZM18.4407 14.4375C18.1782 14.2406 17.6532 14.0437 17.1938 14.0437C16.9969 14.0437 16.8 14.0437 16.6031 14.1094C16.6031 14.1094 16.2094 13.5844 15.2906 13.5844C14.9625 13.5844 14.7 13.65 14.4375 13.7812V13.7156C14.3719 13.5844 14.2406 13.4531 14.1094 13.4531C13.9781 13.4531 13.7813 13.65 13.7813 13.7812V13.8469C13.5188 13.7156 13.2563 13.65 12.9282 13.65C12.0094 13.65 11.6157 14.2406 11.6157 14.175C11.4188 14.1094 11.2219 14.1094 11.025 14.1094C8.00627 14.1094 9.51565 16.1438 9.51565 16.1438L9.84377 15.75C9.1219 14.8313 9.77815 14.3062 11.0906 14.3062C11.2875 14.3062 11.4188 14.3062 11.55 14.3719C11.0906 15.0281 11.9438 15.6187 11.9438 15.6187L12.1406 15.2906C11.6813 14.9625 11.6157 13.8469 12.9282 13.8469C13.2563 13.8469 13.5188 13.9125 13.7813 14.1094C13.7813 14.175 13.7156 15.0938 13.65 15.225L14.175 15.6844L14.7 15.225C14.6344 15.0281 14.5688 14.175 14.5688 14.1094C14.7657 13.9781 15.0938 13.8469 15.4219 13.8469C16.8 13.8469 16.8 14.9625 16.2094 15.2906L16.4063 15.6187C16.4063 15.6187 17.1282 15.0281 16.8 14.3719C16.9313 14.3719 17.1281 14.3062 17.2594 14.3062C18.8344 14.3062 18.9 15.4875 18.5063 15.75L18.7688 16.1438C18.6375 16.1438 19.3594 15.225 18.4407 14.4375" fill="#C8B100"/>
<path d="M13.7156 13.1906C13.7156 12.9938 13.9125 12.7969 14.1094 12.7969C14.3719 12.7969 14.5031 12.9938 14.5031 13.1906C14.5031 13.3875 14.3063 13.5844 14.1094 13.5844C13.9125 13.5844 13.7156 13.3875 13.7156 13.1906Z" fill="#005BBF"/>
<path d="M13.9781 12.075V12.2719H13.7813V12.4688H13.9781V13.125H13.7156V13.3219H14.5031L14.5688 13.1906L14.5031 13.125H14.2406V12.4688H14.4375V12.2719H14.2406V12.075H13.9781Z" fill="#C8B100"/>
<path d="M14.1094 18.5719C13.0594 18.5719 12.1406 18.4406 11.4188 18.2437C12.1406 18.0469 13.0594 17.9156 14.1094 17.9156C15.1594 17.9156 16.0781 18.0469 16.8 18.2437C16.1438 18.4406 15.1594 18.5719 14.1094 18.5719Z" fill="#ED4C5C"/>
<path d="M14.175 29.925C12.9281 29.925 11.7469 29.5969 10.6969 29.1375C9.90939 28.7437 9.45001 28.0219 9.45001 27.1687V24.0187H18.9V27.1687C18.9 28.0219 18.375 28.8094 17.6531 29.1375C16.6031 29.6625 15.4219 29.925 14.175 29.925ZM14.1094 18.7687H18.8344V24.0187H14.1094V18.7687Z" fill="white"/>
<path d="M14.175 27.1687C14.175 28.4156 13.125 29.4 11.8125 29.4C10.5 29.4 9.45001 28.4156 9.45001 27.1687V24.0187H14.175V27.1687Z" fill="#ED4C5C"/>
<path d="M10.4344 29.0063C10.5656 29.0719 10.7625 29.2031 11.025 29.2688V23.8875H10.5L10.4344 29.0063ZM9.3844 27.1031C9.3844 27.7594 9.6469 28.2844 9.9094 28.5469V23.8875H9.3844V27.1031Z" fill="#C8B100"/>
<path d="M11.4844 29.4H12.0094V23.8875H11.4844V29.4Z" fill="#C7B500"/>
<path d="M12.5344 29.2688C12.7312 29.2031 12.9937 29.0719 13.125 29.0063V23.8875H12.6L12.5344 29.2688" fill="#C8B100"/>
<path d="M9.3844 18.7687H14.1094V24.0187H9.3844V18.7687Z" fill="#ED4C5C"/>
<path d="M13.65 28.5469C13.9125 28.35 14.1094 27.8906 14.175 27.3656V23.9531H13.65V28.5469Z" fill="#C8B100"/>
<path d="M18.9 24.0187V27.1687C18.9 28.4156 17.85 29.4 16.5375 29.4C15.225 29.4 14.175 28.4156 14.175 27.1687V24.0187H18.9V24.0187ZM17.1938 19.6875C17.3906 20.0812 17.3906 21.0656 16.8 20.8687C16.9313 20.9344 16.9969 21.3937 17.1938 21.6562C17.5219 22.05 17.9156 21.7219 17.85 21.2625C17.7188 20.5406 17.7844 20.0812 17.9156 19.3594C17.9156 19.425 18.2438 19.425 18.375 19.2937C18.3094 19.4906 18.2438 19.7531 18.375 19.7531C18.2438 19.95 17.9156 20.2781 17.85 20.475C17.7844 20.9344 18.5063 21.7875 17.7188 21.9844C17.1938 22.1156 17.5219 22.5094 17.7188 22.7062C17.7188 22.7062 17.4563 23.5594 17.5875 23.4937C17.0625 23.6906 17.1938 23.2312 17.1938 23.2312C17.4563 22.4437 16.7344 22.3781 16.8 22.2469C16.1438 22.1812 16.8656 22.8375 16.275 22.8375C16.1438 22.8375 15.8813 22.9687 15.8813 22.9687C15.1594 22.9031 15.5531 22.2469 15.8156 22.3125C16.0125 22.3781 16.2094 22.7062 16.2094 22.2469C16.2094 22.2469 15.8813 21.7219 16.7344 21.7219C16.4063 21.7219 16.2094 21.4594 16.0781 21.1312C15.9469 21.1969 15.75 21.525 15.0281 21.5906C15.0281 21.5906 14.8313 20.8687 15.0281 21C15.2906 21.1312 15.4219 21.1312 15.6844 20.8687C15.5531 20.6719 14.7656 20.4094 14.8969 19.95C14.8969 19.8187 15.2906 19.6219 15.2906 19.6219C15.225 19.95 15.4219 20.2781 15.8156 20.2781C16.3406 20.3437 16.1438 20.1469 16.2094 20.0156C16.275 19.8844 16.6688 20.0812 16.5375 19.7531C16.5375 19.6875 16.0781 19.6219 16.2094 19.425C16.4719 19.0969 16.8656 19.3594 17.1938 19.6875V19.6875ZM14.175 29.2687L14.0438 28.9406L14.175 28.5469L14.3063 28.9406L14.175 29.2687Z" fill="#ED4C5C"/>
<path d="M10.8281 19.8844V20.2125H10.9594V20.475H10.6313V21.1313H10.8281V22.575H10.4344V23.2969H13.125V22.575H12.7969V21.1313H12.9281V20.475H12.6V20.2125H12.7969V19.8844H12.1406V20.2125H12.2719V20.475H11.9438V19.6875H12.1406V19.3594H11.4188V19.6875H11.6156V20.475H11.2875V20.2125H11.4188V19.8844H10.8281ZM18.2438 27.9562V24.675H14.8313V27.9562L16.4063 28.6781H16.6031L18.2438 27.9562ZM16.4063 24.9375V26.0531L15.2906 24.9375H16.4063ZM15.0281 25.0031L16.3406 26.3156L15.0281 27.6281V25.0031ZM15.1594 27.8906L16.4063 26.6437V28.4813L15.1594 27.8906ZM16.6031 28.4156V26.5781L17.85 27.825L16.6031 28.4156ZM17.9813 27.6281L16.6688 26.3156L17.9813 25.0031V27.6281ZM16.6031 24.9375H17.7188L16.6031 26.0531V24.9375Z" fill="#C8B100"/>
<path d="M12.6 23.9531C12.6 22.9688 13.2562 22.2469 14.1094 22.2469C14.9625 22.2469 15.6187 23.0344 15.6187 23.9531C15.6187 24.8719 14.9625 25.6594 14.1094 25.6594C13.2562 25.6594 12.6 24.9375 12.6 23.9531Z" fill="#ED4C5C"/>
<path d="M13.0594 23.9531C13.0594 23.2312 13.5188 22.7062 14.1094 22.7062C14.7 22.7062 15.1594 23.2969 15.1594 23.9531C15.1594 24.675 14.7 25.2 14.1094 25.2C13.5844 25.2656 13.0594 24.675 13.0594 23.9531Z" fill="#005BBF"/>
<path d="M13.65 23.1L13.3875 23.8219L13.5844 23.8875L13.4531 24.15H13.8469L13.7156 23.8875L13.9125 23.8219L13.65 23.1V23.1ZM14.6344 23.1L14.3719 23.8219L14.5688 23.8875L14.4375 24.15H14.8313L14.7656 23.8875L14.9625 23.8219L14.6344 23.1V23.1ZM14.175 23.9531L13.8469 24.675L14.0438 24.7406L13.9781 25.0031H14.3063L14.2406 24.7406L14.4375 24.675L14.175 23.9531Z" fill="#C8B100"/>
</svg>
