<svg width="42" height="42" viewBox="0 0 42 42" fill="none" xmlns="http://www.w3.org/2000/svg">
<path d="M21 3.5C21.3481 3.5 21.6819 3.63828 21.9281 3.88442C22.1742 4.13056 22.3125 4.4644 22.3125 4.8125V7.4375C22.3125 7.7856 22.1742 8.11944 21.9281 8.36558C21.6819 8.61172 21.3481 8.75 21 8.75C20.6519 8.75 20.3181 8.61172 20.0719 8.36558C19.8258 8.11944 19.6875 7.7856 19.6875 7.4375V4.8125C19.6875 4.4644 19.8258 4.13056 20.0719 3.88442C20.3181 3.63828 20.6519 3.5 21 3.5ZM21 29.75C23.3206 29.75 25.5462 28.8281 27.1872 27.1872C28.8281 25.5462 29.75 23.3206 29.75 21C29.75 18.6794 28.8281 16.4538 27.1872 14.8128C25.5462 13.1719 23.3206 12.25 21 12.25C18.6794 12.25 16.4538 13.1719 14.8128 14.8128C13.1719 16.4538 12.25 18.6794 12.25 21C12.25 23.3206 13.1719 25.5462 14.8128 27.1872C16.4538 28.8281 18.6794 29.75 21 29.75ZM21 27.125C20.1957 27.125 19.3992 26.9666 18.6561 26.6588C17.9129 26.351 17.2377 25.8998 16.669 25.331C16.1002 24.7623 15.649 24.0871 15.3412 23.3439C15.0334 22.6008 14.875 21.8043 14.875 21C14.875 20.1957 15.0334 19.3992 15.3412 18.6561C15.649 17.9129 16.1002 17.2377 16.669 16.669C17.2377 16.1002 17.9129 15.649 18.6561 15.3412C19.3992 15.0334 20.1957 14.875 21 14.875C22.6245 14.875 24.1824 15.5203 25.331 16.669C26.4797 17.8176 27.125 19.3755 27.125 21C27.125 22.6245 26.4797 24.1824 25.331 25.331C24.1824 26.4797 22.6245 27.125 21 27.125ZM37.1875 22.3125C37.5356 22.3125 37.8694 22.1742 38.1156 21.9281C38.3617 21.6819 38.5 21.3481 38.5 21C38.5 20.6519 38.3617 20.3181 38.1156 20.0719C37.8694 19.8258 37.5356 19.6875 37.1875 19.6875H34.5625C34.2144 19.6875 33.8806 19.8258 33.6344 20.0719C33.3883 20.3181 33.25 20.6519 33.25 21C33.25 21.3481 33.3883 21.6819 33.6344 21.9281C33.8806 22.1742 34.2144 22.3125 34.5625 22.3125H37.1875ZM21 33.25C21.3481 33.25 21.6819 33.3883 21.9281 33.6344C22.1742 33.8806 22.3125 34.2144 22.3125 34.5625V37.1875C22.3125 37.5356 22.1742 37.8694 21.9281 38.1156C21.6819 38.3617 21.3481 38.5 21 38.5C20.6519 38.5 20.3181 38.3617 20.0719 38.1156C19.8258 37.8694 19.6875 37.5356 19.6875 37.1875V34.5625C19.6875 34.2144 19.8258 33.8806 20.0719 33.6344C20.3181 33.3883 20.6519 33.25 21 33.25ZM7.4375 22.3125C7.7856 22.3125 8.11944 22.1742 8.36558 21.9281C8.61172 21.6819 8.75 21.3481 8.75 21C8.75 20.6519 8.61172 20.3181 8.36558 20.0719C8.11944 19.8258 7.7856 19.6875 7.4375 19.6875H4.8125C4.4644 19.6875 4.13056 19.8258 3.88442 20.0719C3.63828 20.3181 3.5 20.6519 3.5 21C3.5 21.3481 3.63828 21.6819 3.88442 21.9281C4.13056 22.1742 4.4644 22.3125 4.8125 22.3125H7.4375ZM7.385 7.385C7.63109 7.13921 7.96469 7.00115 8.3125 7.00115C8.66031 7.00115 8.99391 7.13921 9.24 7.385L11.865 10.01C12.0968 10.2588 12.2231 10.5879 12.2171 10.9279C12.2111 11.2679 12.0733 11.5924 11.8328 11.8328C11.5924 12.0733 11.2679 12.2111 10.9279 12.2171C10.5879 12.2231 10.2588 12.0968 10.01 11.865L7.385 9.24C7.13921 8.99391 7.00115 8.66031 7.00115 8.3125C7.00115 7.96469 7.13921 7.63109 7.385 7.385V7.385ZM9.24 34.615C9.11984 34.744 8.97494 34.8474 8.81394 34.9191C8.65294 34.9909 8.47914 35.0294 8.30291 35.0325C8.12668 35.0356 7.95163 35.0032 7.7882 34.9372C7.62477 34.8712 7.47632 34.7729 7.35168 34.6483C7.22705 34.5237 7.1288 34.3752 7.06279 34.2118C6.99677 34.0484 6.96436 33.8733 6.96746 33.6971C6.97057 33.5209 7.00915 33.3471 7.08088 33.1861C7.15262 33.0251 7.25605 32.8802 7.385 32.76L10.01 30.135C10.1302 30.006 10.2751 29.9026 10.4361 29.8309C10.5971 29.7591 10.7709 29.7206 10.9471 29.7175C11.1233 29.7144 11.2984 29.7468 11.4618 29.8128C11.6252 29.8788 11.7737 29.9771 11.8983 30.1017C12.023 30.2263 12.1212 30.3748 12.1872 30.5382C12.2532 30.7016 12.2856 30.8767 12.2825 31.0529C12.2794 31.2291 12.2409 31.4029 12.1691 31.5639C12.0974 31.7249 11.994 31.8698 11.865 31.99L9.24 34.615ZM34.615 7.385C34.3689 7.13921 34.0353 7.00115 33.6875 7.00115C33.3397 7.00115 33.0061 7.13921 32.76 7.385L30.135 10.01C29.9032 10.2588 29.7769 10.5879 29.7829 10.9279C29.7889 11.2679 29.9267 11.5924 30.1672 11.8328C30.4076 12.0733 30.7321 12.2111 31.0721 12.2171C31.4121 12.2231 31.7412 12.0968 31.99 11.865L34.615 9.24C34.8608 8.99391 34.9988 8.66031 34.9988 8.3125C34.9988 7.96469 34.8608 7.63109 34.615 7.385V7.385ZM32.76 34.615C32.8802 34.744 33.0251 34.8474 33.1861 34.9191C33.3471 34.9909 33.5209 35.0294 33.6971 35.0325C33.8733 35.0356 34.0484 35.0032 34.2118 34.9372C34.3752 34.8712 34.5237 34.7729 34.6483 34.6483C34.7729 34.5237 34.8712 34.3752 34.9372 34.2118C35.0032 34.0484 35.0356 33.8733 35.0325 33.6971C35.0294 33.5209 34.9909 33.3471 34.9191 33.1861C34.8474 33.0251 34.744 32.8802 34.615 32.76L31.99 30.135C31.8698 30.006 31.7249 29.9026 31.5639 29.8309C31.4029 29.7591 31.2291 29.7206 31.0529 29.7175C30.8767 29.7144 30.7016 29.7468 30.5382 29.8128C30.3748 29.8788 30.2263 29.9771 30.1017 30.1017C29.9771 30.2263 29.8788 30.3748 29.8128 30.5382C29.7468 30.7016 29.7144 30.8767 29.7175 31.0529C29.7206 31.2291 29.7591 31.4029 29.8309 31.5639C29.9026 31.7249 30.006 31.8698 30.135 31.99L32.76 34.615Z" fill="black"/>
</svg>
