<svg width="42" height="42" viewBox="0 0 42 42" fill="none" xmlns="http://www.w3.org/2000/svg">
<path d="M31.5 4.33125C28.4156 2.42812 24.8719 1.3125 21 1.3125V4.33125H31.5Z" fill="#ED4C5C"/>
<path d="M21 7.34999H35.175C34.0594 6.23436 32.8125 5.18436 31.5 4.33124H21V7.34999Z" fill="white"/>
<path d="M21 10.3688H37.6031C36.8812 9.25313 36.0938 8.26876 35.2406 7.35001H21V10.3688Z" fill="#ED4C5C"/>
<path d="M21 13.3875H39.1781C38.7188 12.3375 38.1937 11.2875 37.6031 10.3687H21V13.3875Z" fill="white"/>
<path d="M21 16.4063H40.1625C39.9 15.3563 39.5719 14.3719 39.1781 13.3875H21V16.4063Z" fill="#ED4C5C"/>
<path d="M21 19.4906H40.6219C40.5563 18.4406 40.3594 17.4562 40.1625 16.4719H21V19.4906" fill="white"/>
<path d="M40.6219 19.4906H21V21H1.3125C1.3125 21.525 1.3125 21.9844 1.37812 22.5094H40.6219C40.6875 21.9844 40.6875 21.525 40.6875 21C40.6875 20.475 40.6875 19.95 40.6219 19.4906" fill="#ED4C5C"/>
<path d="M1.83749 25.5281H40.1625C40.425 24.5437 40.5562 23.5594 40.6219 22.5094H1.37811C1.44374 23.4937 1.57499 24.5437 1.83749 25.5281Z" fill="white"/>
<path d="M2.8219 28.5469H39.1782C39.5719 27.5625 39.9 26.5781 40.1625 25.5281H1.83752C2.10002 26.5781 2.42815 27.5625 2.8219 28.5469Z" fill="#ED4C5C"/>
<path d="M4.3969 31.5656H37.6031C38.1938 30.5812 38.7188 29.5969 39.1782 28.5469H2.8219C3.28127 29.5969 3.80627 30.5812 4.3969 31.5656" fill="white"/>
<path d="M6.75935 34.5844H35.2406C36.0937 33.6656 36.9468 32.6156 37.6031 31.5656H4.39685C5.0531 32.6812 5.90623 33.6656 6.75935 34.5844Z" fill="#ED4C5C"/>
<path d="M10.4344 37.6031H31.5656C32.9438 36.75 34.125 35.7 35.2407 34.5844H6.7594C7.87502 35.7656 9.1219 36.75 10.4344 37.6031Z" fill="white"/>
<path d="M21 40.6875C24.8719 40.6875 28.4813 39.5719 31.5656 37.6031H10.4344C13.5188 39.5719 17.1281 40.6875 21 40.6875Z" fill="#ED4C5C"/>
<path d="M10.5 4.33125C9.12188 5.18437 7.875 6.23437 6.75938 7.35C5.84063 8.26875 5.05312 9.31875 4.39687 10.3688C3.80625 11.3531 3.21563 12.3375 2.82188 13.3875C2.42813 14.3719 2.1 15.3562 1.8375 16.4062C1.575 17.3906 1.44375 18.375 1.37812 19.425C1.3125 19.95 1.3125 20.475 1.3125 21H21V1.3125C17.1281 1.3125 13.5844 2.42812 10.5 4.33125Z" fill="#428BC1"/>
<path d="M16.4063 1.96875L16.7344 2.95312H17.7188L16.9313 3.60938L17.1938 4.59375L16.4063 4.00312L15.6188 4.59375L15.8813 3.60938L15.0938 2.95312H16.0781L16.4063 1.96875ZM19.0313 5.90625L19.3594 6.89062H20.3438L19.5563 7.54688L19.8188 8.53125L19.0313 7.94063L18.2438 8.53125L18.5063 7.54688L17.7188 6.89062H18.7031L19.0313 5.90625ZM13.7813 5.90625L14.1094 6.89062H15.0938L14.3063 7.54688L14.5688 8.53125L13.7813 7.94063L12.9938 8.53125L13.2563 7.54688L12.4688 6.89062H13.4531L13.7813 5.90625ZM16.4063 9.84375L16.7344 10.8281H17.7188L16.9313 11.4844L17.1938 12.4688L16.4063 11.8781L15.6188 12.4688L15.8813 11.4844L15.0938 10.8281H16.0781L16.4063 9.84375ZM11.1563 9.84375L11.4844 10.8281H12.4688L11.6813 11.4844L11.9438 12.4688L11.1563 11.8781L10.3688 12.4688L10.6313 11.4844L9.84376 10.8281H10.8281L11.1563 9.84375ZM5.90626 9.84375L6.23439 10.8281H7.21876L6.43126 11.4844L6.69376 12.4688L5.90626 11.8781L5.11876 12.4688L5.38126 11.4844L4.59376 10.8281H5.57814L5.90626 9.84375ZM19.0313 13.7812L19.3594 14.7656H20.3438L19.5563 15.4219L19.8188 16.4062L19.0313 15.8156L18.2438 16.4062L18.5063 15.4219L17.7188 14.7656H18.7031L19.0313 13.7812ZM13.7813 13.7812L14.1094 14.7656H15.0938L14.3063 15.4219L14.5688 16.4062L13.7813 15.8156L12.9938 16.4062L13.2563 15.4219L12.4688 14.7656H13.4531L13.7813 13.7812ZM8.53126 13.7812L8.85939 14.7656H9.84376L9.05626 15.4219L9.31876 16.4062L8.53126 15.8156L7.74376 16.4062L8.00626 15.4219L7.21876 14.7656H8.20314L8.53126 13.7812ZM16.4063 17.7188L16.7344 18.7031H17.7188L16.9313 19.3594L17.1938 20.3438L16.4063 19.7531L15.6188 20.3438L15.8813 19.3594L15.0938 18.7031H16.0781L16.4063 17.7188ZM11.1563 17.7188L11.4844 18.7031H12.4688L11.6813 19.3594L11.9438 20.3438L11.1563 19.7531L10.3688 20.3438L10.6313 19.3594L9.84376 18.7031H10.8281L11.1563 17.7188ZM5.90626 17.7188L6.23439 18.7031H7.21876L6.43126 19.3594L6.69376 20.3438L5.90626 19.7531L5.11876 20.3438L5.38126 19.3594L4.59376 18.7031H5.57814L5.90626 17.7188ZM7.74376 8.53125L8.53126 7.94063L9.31876 8.53125L8.99064 7.54688L9.77814 6.89062H8.79376L8.53126 5.90625L8.20314 6.89062H7.28439L8.07189 7.48125L7.74376 8.53125V8.53125ZM2.49376 16.4062L3.28126 15.8156L4.06876 16.4062L3.74064 15.4219L4.52814 14.7656H3.60939L3.28126 13.7812L2.95314 14.7656H2.29689C2.29689 14.8313 2.23126 14.8969 2.23126 14.9625L2.75626 15.3562L2.49376 16.4062" fill="white"/>
</svg>
