<svg width="1440" height="290" viewBox="0 0 1440 290" fill="none" xmlns="http://www.w3.org/2000/svg">
<path fill-rule="evenodd" clip-rule="evenodd" d="M0 159.523H34C69 159.523 137 159.523 206 116.523C274 73.5232 343 -12.4769 411 1.52315C480 15.5232 549 131.523 617 131.523C686 131.523 754 15.5232 823 8.52315C891 1.52315 960 102.523 1029 159.523C1097 217.523 1166 231.523 1234 210.523C1303 188.523 1371 131.523 1406 102.523L1440 73.5232V289.523H1406C1371 289.523 1303 289.523 1234 289.523C1166 289.523 1097 289.523 1029 289.523C960 289.523 891 289.523 823 289.523C754 289.523 686 289.523 617 289.523C549 289.523 480 289.523 411 289.523C343 289.523 274 289.523 206 289.523C137 289.523 69 289.523 34 289.523H0L0 159.523Z" fill="#81C3EF" fill-opacity="0.4"/>
</svg>
